<mxfile host="app.diagrams.net" agent="Mozilla/5.0 (Windows NT 10.0; Win64; x64) AppleWebKit/537.36 (KHTML, like Gecko) Chrome/131.0.0.0 Safari/537.36" version="25.0.3">
  <diagram name="หน้า-1" id="Zqv88yDJogK8uRmdJEK1">
    <mxGraphModel dx="1034" dy="446" grid="1" gridSize="10" guides="1" tooltips="1" connect="1" arrows="1" fold="1" page="1" pageScale="1" pageWidth="827" pageHeight="1169" math="0" shadow="0">
      <root>
        <mxCell id="0" />
        <mxCell id="1" parent="0" />
        <mxCell id="si2KzQiy1PuN3wJZ8p-4-3" value="" style="edgeStyle=orthogonalEdgeStyle;rounded=0;orthogonalLoop=1;jettySize=auto;html=1;" edge="1" parent="1" source="si2KzQiy1PuN3wJZ8p-4-1" target="si2KzQiy1PuN3wJZ8p-4-2">
          <mxGeometry relative="1" as="geometry" />
        </mxCell>
        <mxCell id="si2KzQiy1PuN3wJZ8p-4-1" value="start" style="strokeWidth=2;html=1;shape=mxgraph.flowchart.start_1;whiteSpace=wrap;" vertex="1" parent="1">
          <mxGeometry x="364" y="60" width="100" height="60" as="geometry" />
        </mxCell>
        <mxCell id="si2KzQiy1PuN3wJZ8p-4-5" value="" style="edgeStyle=orthogonalEdgeStyle;rounded=0;orthogonalLoop=1;jettySize=auto;html=1;" edge="1" parent="1" source="si2KzQiy1PuN3wJZ8p-4-2" target="si2KzQiy1PuN3wJZ8p-4-4">
          <mxGeometry relative="1" as="geometry" />
        </mxCell>
        <mxCell id="si2KzQiy1PuN3wJZ8p-4-2" value="กำหนดตัวแปร start / end / i / j" style="whiteSpace=wrap;html=1;strokeWidth=2;" vertex="1" parent="1">
          <mxGeometry x="354" y="200" width="120" height="60" as="geometry" />
        </mxCell>
        <mxCell id="si2KzQiy1PuN3wJZ8p-4-7" value="" style="edgeStyle=orthogonalEdgeStyle;rounded=0;orthogonalLoop=1;jettySize=auto;html=1;" edge="1" parent="1" source="si2KzQiy1PuN3wJZ8p-4-4" target="si2KzQiy1PuN3wJZ8p-4-6">
          <mxGeometry relative="1" as="geometry" />
        </mxCell>
        <mxCell id="si2KzQiy1PuN3wJZ8p-4-4" value="แสดงคำว่า Start :" style="shape=parallelogram;perimeter=parallelogramPerimeter;whiteSpace=wrap;html=1;fixedSize=1;strokeWidth=2;" vertex="1" parent="1">
          <mxGeometry x="354" y="340" width="120" height="60" as="geometry" />
        </mxCell>
        <mxCell id="si2KzQiy1PuN3wJZ8p-4-9" value="" style="edgeStyle=orthogonalEdgeStyle;rounded=0;orthogonalLoop=1;jettySize=auto;html=1;" edge="1" parent="1" source="si2KzQiy1PuN3wJZ8p-4-6" target="si2KzQiy1PuN3wJZ8p-4-8">
          <mxGeometry relative="1" as="geometry" />
        </mxCell>
        <mxCell id="si2KzQiy1PuN3wJZ8p-4-6" value="รับค่าจากผู้ใช้" style="shape=parallelogram;perimeter=parallelogramPerimeter;whiteSpace=wrap;html=1;fixedSize=1;strokeWidth=2;" vertex="1" parent="1">
          <mxGeometry x="354" y="480" width="120" height="60" as="geometry" />
        </mxCell>
        <mxCell id="si2KzQiy1PuN3wJZ8p-4-11" value="" style="edgeStyle=orthogonalEdgeStyle;rounded=0;orthogonalLoop=1;jettySize=auto;html=1;" edge="1" parent="1" source="si2KzQiy1PuN3wJZ8p-4-8" target="si2KzQiy1PuN3wJZ8p-4-10">
          <mxGeometry relative="1" as="geometry" />
        </mxCell>
        <mxCell id="si2KzQiy1PuN3wJZ8p-4-8" value="แสดงคำว่า End :" style="shape=parallelogram;perimeter=parallelogramPerimeter;whiteSpace=wrap;html=1;fixedSize=1;strokeWidth=2;" vertex="1" parent="1">
          <mxGeometry x="354" y="620" width="120" height="60" as="geometry" />
        </mxCell>
        <mxCell id="si2KzQiy1PuN3wJZ8p-4-13" value="" style="edgeStyle=orthogonalEdgeStyle;rounded=0;orthogonalLoop=1;jettySize=auto;html=1;" edge="1" parent="1" source="si2KzQiy1PuN3wJZ8p-4-10" target="si2KzQiy1PuN3wJZ8p-4-12">
          <mxGeometry relative="1" as="geometry" />
        </mxCell>
        <mxCell id="si2KzQiy1PuN3wJZ8p-4-10" value="รับค่าจากผู้ใช้" style="shape=parallelogram;perimeter=parallelogramPerimeter;whiteSpace=wrap;html=1;fixedSize=1;strokeWidth=2;" vertex="1" parent="1">
          <mxGeometry x="354" y="760" width="120" height="60" as="geometry" />
        </mxCell>
        <mxCell id="si2KzQiy1PuN3wJZ8p-4-15" value="" style="edgeStyle=orthogonalEdgeStyle;rounded=0;orthogonalLoop=1;jettySize=auto;html=1;" edge="1" parent="1" source="si2KzQiy1PuN3wJZ8p-4-12" target="si2KzQiy1PuN3wJZ8p-4-14">
          <mxGeometry relative="1" as="geometry" />
        </mxCell>
        <mxCell id="si2KzQiy1PuN3wJZ8p-4-12" value="i = start&amp;nbsp;" style="whiteSpace=wrap;html=1;strokeWidth=2;" vertex="1" parent="1">
          <mxGeometry x="354" y="900" width="120" height="60" as="geometry" />
        </mxCell>
        <mxCell id="si2KzQiy1PuN3wJZ8p-4-19" value="" style="edgeStyle=orthogonalEdgeStyle;rounded=0;orthogonalLoop=1;jettySize=auto;html=1;" edge="1" parent="1" source="si2KzQiy1PuN3wJZ8p-4-14" target="si2KzQiy1PuN3wJZ8p-4-18">
          <mxGeometry relative="1" as="geometry" />
        </mxCell>
        <mxCell id="si2KzQiy1PuN3wJZ8p-4-23" value="" style="edgeStyle=orthogonalEdgeStyle;rounded=0;orthogonalLoop=1;jettySize=auto;html=1;" edge="1" parent="1" source="si2KzQiy1PuN3wJZ8p-4-34" target="si2KzQiy1PuN3wJZ8p-4-22">
          <mxGeometry relative="1" as="geometry">
            <Array as="points">
              <mxPoint x="670" y="1070" />
              <mxPoint x="670" y="2320" />
              <mxPoint x="414" y="2320" />
            </Array>
          </mxGeometry>
        </mxCell>
        <mxCell id="si2KzQiy1PuN3wJZ8p-4-14" value="i &amp;lt;= end ?" style="rhombus;whiteSpace=wrap;html=1;strokeWidth=2;" vertex="1" parent="1">
          <mxGeometry x="374" y="1030" width="80" height="80" as="geometry" />
        </mxCell>
        <mxCell id="si2KzQiy1PuN3wJZ8p-4-21" value="" style="edgeStyle=orthogonalEdgeStyle;rounded=0;orthogonalLoop=1;jettySize=auto;html=1;" edge="1" parent="1" source="si2KzQiy1PuN3wJZ8p-4-18" target="si2KzQiy1PuN3wJZ8p-4-20">
          <mxGeometry relative="1" as="geometry" />
        </mxCell>
        <mxCell id="si2KzQiy1PuN3wJZ8p-4-18" value="j = 1&amp;nbsp;" style="whiteSpace=wrap;html=1;strokeWidth=2;" vertex="1" parent="1">
          <mxGeometry x="354" y="1200" width="120" height="60" as="geometry" />
        </mxCell>
        <mxCell id="si2KzQiy1PuN3wJZ8p-4-25" value="" style="edgeStyle=orthogonalEdgeStyle;rounded=0;orthogonalLoop=1;jettySize=auto;html=1;" edge="1" parent="1" source="si2KzQiy1PuN3wJZ8p-4-20" target="si2KzQiy1PuN3wJZ8p-4-24">
          <mxGeometry relative="1" as="geometry" />
        </mxCell>
        <mxCell id="si2KzQiy1PuN3wJZ8p-4-35" style="edgeStyle=orthogonalEdgeStyle;rounded=0;orthogonalLoop=1;jettySize=auto;html=1;exitX=1;exitY=0.5;exitDx=0;exitDy=0;entryX=0.2;entryY=0.45;entryDx=0;entryDy=0;entryPerimeter=0;" edge="1" parent="1" source="si2KzQiy1PuN3wJZ8p-4-20" target="si2KzQiy1PuN3wJZ8p-4-34">
          <mxGeometry relative="1" as="geometry">
            <mxPoint x="630" y="1370" as="targetPoint" />
            <Array as="points">
              <mxPoint x="542" y="1370" />
              <mxPoint x="542" y="1371" />
            </Array>
          </mxGeometry>
        </mxCell>
        <mxCell id="si2KzQiy1PuN3wJZ8p-4-20" value="j &amp;lt;= 9" style="rhombus;whiteSpace=wrap;html=1;strokeWidth=2;" vertex="1" parent="1">
          <mxGeometry x="374" y="1330" width="80" height="80" as="geometry" />
        </mxCell>
        <mxCell id="si2KzQiy1PuN3wJZ8p-4-22" value="end" style="strokeWidth=2;html=1;shape=mxgraph.flowchart.start_1;whiteSpace=wrap;" vertex="1" parent="1">
          <mxGeometry x="364" y="2400" width="100" height="60" as="geometry" />
        </mxCell>
        <mxCell id="si2KzQiy1PuN3wJZ8p-4-27" value="" style="edgeStyle=orthogonalEdgeStyle;rounded=0;orthogonalLoop=1;jettySize=auto;html=1;" edge="1" parent="1" source="si2KzQiy1PuN3wJZ8p-4-24" target="si2KzQiy1PuN3wJZ8p-4-26">
          <mxGeometry relative="1" as="geometry" />
        </mxCell>
        <mxCell id="si2KzQiy1PuN3wJZ8p-4-24" value="แสดงการคูณ&lt;div&gt;เริ่มจากตัวเลขแรกที่ผู้ใช้กรอกจนถึงตัวเลขสุดท้ายที่ผู้ใช้กรอก&lt;/div&gt;&lt;div&gt;โดยแสดง ตัวเลขแรก x 1 -9 จนถึง ตัวเลขสุดท้าย x 1 - 9&amp;nbsp;&lt;/div&gt;" style="shape=parallelogram;perimeter=parallelogramPerimeter;whiteSpace=wrap;html=1;fixedSize=1;strokeWidth=2;" vertex="1" parent="1">
          <mxGeometry x="231" y="1490" width="366" height="150" as="geometry" />
        </mxCell>
        <mxCell id="si2KzQiy1PuN3wJZ8p-4-29" value="" style="edgeStyle=orthogonalEdgeStyle;rounded=0;orthogonalLoop=1;jettySize=auto;html=1;" edge="1" parent="1" source="si2KzQiy1PuN3wJZ8p-4-26" target="si2KzQiy1PuN3wJZ8p-4-28">
          <mxGeometry relative="1" as="geometry" />
        </mxCell>
        <mxCell id="si2KzQiy1PuN3wJZ8p-4-26" value="j ++&amp;nbsp;" style="whiteSpace=wrap;html=1;strokeWidth=2;" vertex="1" parent="1">
          <mxGeometry x="354" y="1765" width="120" height="60" as="geometry" />
        </mxCell>
        <mxCell id="si2KzQiy1PuN3wJZ8p-4-31" value="" style="edgeStyle=orthogonalEdgeStyle;rounded=0;orthogonalLoop=1;jettySize=auto;html=1;" edge="1" parent="1" source="si2KzQiy1PuN3wJZ8p-4-28" target="si2KzQiy1PuN3wJZ8p-4-30">
          <mxGeometry relative="1" as="geometry" />
        </mxCell>
        <mxCell id="si2KzQiy1PuN3wJZ8p-4-28" value="เว้นบรรทัด" style="shape=parallelogram;perimeter=parallelogramPerimeter;whiteSpace=wrap;html=1;fixedSize=1;strokeWidth=2;" vertex="1" parent="1">
          <mxGeometry x="354" y="1905" width="120" height="60" as="geometry" />
        </mxCell>
        <mxCell id="si2KzQiy1PuN3wJZ8p-4-30" value="i ++" style="whiteSpace=wrap;html=1;strokeWidth=2;" vertex="1" parent="1">
          <mxGeometry x="354" y="2045" width="120" height="60" as="geometry" />
        </mxCell>
        <mxCell id="si2KzQiy1PuN3wJZ8p-4-32" value="" style="shape=waypoint;sketch=0;fillStyle=solid;size=6;pointerEvents=1;points=[];fillColor=none;resizable=0;rotatable=0;perimeter=centerPerimeter;snapToPoint=1;" vertex="1" parent="1">
          <mxGeometry x="404" y="990" width="20" height="20" as="geometry" />
        </mxCell>
        <mxCell id="si2KzQiy1PuN3wJZ8p-4-33" style="edgeStyle=orthogonalEdgeStyle;rounded=0;orthogonalLoop=1;jettySize=auto;html=1;exitX=0.5;exitY=1;exitDx=0;exitDy=0;entryX=0.2;entryY=0.6;entryDx=0;entryDy=0;entryPerimeter=0;" edge="1" parent="1" source="si2KzQiy1PuN3wJZ8p-4-30" target="si2KzQiy1PuN3wJZ8p-4-32">
          <mxGeometry relative="1" as="geometry">
            <Array as="points">
              <mxPoint x="414" y="2190" />
              <mxPoint x="150" y="2190" />
              <mxPoint x="150" y="1000" />
            </Array>
          </mxGeometry>
        </mxCell>
        <mxCell id="si2KzQiy1PuN3wJZ8p-4-36" value="" style="edgeStyle=orthogonalEdgeStyle;rounded=0;orthogonalLoop=1;jettySize=auto;html=1;" edge="1" parent="1" source="si2KzQiy1PuN3wJZ8p-4-14" target="si2KzQiy1PuN3wJZ8p-4-34">
          <mxGeometry relative="1" as="geometry">
            <mxPoint x="454" y="1070" as="sourcePoint" />
            <mxPoint x="414" y="2400" as="targetPoint" />
            <Array as="points" />
          </mxGeometry>
        </mxCell>
        <mxCell id="si2KzQiy1PuN3wJZ8p-4-34" value="" style="shape=waypoint;sketch=0;fillStyle=solid;size=6;pointerEvents=1;points=[];fillColor=none;resizable=0;rotatable=0;perimeter=centerPerimeter;snapToPoint=1;" vertex="1" parent="1">
          <mxGeometry x="660" y="1360" width="20" height="20" as="geometry" />
        </mxCell>
        <mxCell id="si2KzQiy1PuN3wJZ8p-4-37" value="T" style="text;html=1;align=center;verticalAlign=middle;resizable=0;points=[];autosize=1;strokeColor=none;fillColor=none;" vertex="1" parent="1">
          <mxGeometry x="375" y="1118" width="30" height="30" as="geometry" />
        </mxCell>
        <mxCell id="si2KzQiy1PuN3wJZ8p-4-38" value="F" style="text;html=1;align=center;verticalAlign=middle;resizable=0;points=[];autosize=1;strokeColor=none;fillColor=none;" vertex="1" parent="1">
          <mxGeometry x="465" y="1028" width="30" height="30" as="geometry" />
        </mxCell>
        <mxCell id="si2KzQiy1PuN3wJZ8p-4-39" value="T" style="text;html=1;align=center;verticalAlign=middle;resizable=0;points=[];autosize=1;strokeColor=none;fillColor=none;" vertex="1" parent="1">
          <mxGeometry x="365" y="1418" width="30" height="30" as="geometry" />
        </mxCell>
        <mxCell id="si2KzQiy1PuN3wJZ8p-4-40" value="F" style="text;html=1;align=center;verticalAlign=middle;resizable=0;points=[];autosize=1;strokeColor=none;fillColor=none;" vertex="1" parent="1">
          <mxGeometry x="465" y="1308" width="30" height="30" as="geometry" />
        </mxCell>
      </root>
    </mxGraphModel>
  </diagram>
</mxfile>
